<svg width="13" height="13" viewBox="0 0 13 13" fill="none" xmlns="http://www.w3.org/2000/svg">
<path d="M11.9258 1.6142C11.8243 1.36985 11.6301 1.17568 11.3858 1.0742C11.2656 1.02296 11.1365 0.995782 11.0058 0.994202H5.0058C4.74058 0.994202 4.48623 1.09956 4.29869 1.2871C4.11116 1.47463 4.0058 1.72899 4.0058 1.9942C4.0058 2.25942 4.11116 2.51377 4.29869 2.70131C4.48623 2.88884 4.74058 2.9942 5.0058 2.9942H8.5958L0.295798 11.2842C0.20207 11.3772 0.127676 11.4878 0.0769072 11.6096C0.0261385 11.7315 0 11.8622 0 11.9942C0 12.1262 0.0261385 12.2569 0.0769072 12.3788C0.127676 12.5006 0.20207 12.6112 0.295798 12.7042C0.388761 12.7979 0.499362 12.8723 0.621222 12.9231C0.743081 12.9739 0.873786 13 1.0058 13C1.13781 13 1.26852 12.9739 1.39038 12.9231C1.51223 12.8723 1.62284 12.7979 1.7158 12.7042L10.0058 4.4042V7.9942C10.0058 8.25942 10.1112 8.51377 10.2987 8.70131C10.4862 8.88885 10.7406 8.9942 11.0058 8.9942C11.271 8.9942 11.5254 8.88885 11.7129 8.70131C11.9004 8.51377 12.0058 8.25942 12.0058 7.9942V1.9942C12.0042 1.86352 11.977 1.73442 11.9258 1.6142Z" fill="#49970C"/>
</svg>
