<svg width="13" height="13" viewBox="0 0 13 13" fill="none" xmlns="http://www.w3.org/2000/svg">
<path d="M11.3858 11.9258C11.6301 11.8243 11.8243 11.6301 11.9258 11.3858C11.977 11.2656 12.0042 11.1365 12.0058 11.0058V5.0058C12.0058 4.74058 11.9004 4.48623 11.7129 4.29869C11.5254 4.11116 11.271 4.0058 11.0058 4.0058C10.7406 4.0058 10.4862 4.11116 10.2987 4.29869C10.1112 4.48623 10.0058 4.74058 10.0058 5.0058V8.5958L1.7158 0.295798C1.62283 0.20207 1.51223 0.127676 1.39038 0.0769072C1.26852 0.0261385 1.13781 0 1.0058 0C0.873787 0 0.743081 0.0261385 0.621222 0.0769072C0.499362 0.127676 0.388762 0.20207 0.295799 0.295798C0.202071 0.388761 0.127675 0.499362 0.0769062 0.621222C0.0261374 0.743081 0 0.873786 0 1.0058C0 1.13781 0.0261374 1.26852 0.0769062 1.39038C0.127675 1.51223 0.202071 1.62284 0.295799 1.7158L8.5958 10.0058H5.0058C4.74058 10.0058 4.48623 10.1112 4.29869 10.2987C4.11115 10.4862 4.0058 10.7406 4.0058 11.0058C4.0058 11.271 4.11115 11.5254 4.29869 11.7129C4.48623 11.9004 4.74058 12.0058 5.0058 12.0058H11.0058C11.1365 12.0042 11.2656 11.977 11.3858 11.9258Z" fill="#970C0C"/>
</svg>
